<?xml version="1.0" standalone="no"?>
<!DOCTYPE svg PUBLIC "-//W3C//DTD SVG 20010904//EN"
 "http://www.w3.org/TR/2001/REC-SVG-20010904/DTD/svg10.dtd">
<svg version="1.0" xmlns="http://www.w3.org/2000/svg"
 width="300.000000pt" height="300.000000pt" viewBox="0 0 300.000000 300.000000"
 preserveAspectRatio="xMidYMid meet">

<g transform="translate(0.000000,300.000000) scale(0.100000,-0.100000)"
fill="#000000" stroke="none">
<path d="M1313 2585 c-120 -22 -222 -60 -288 -110 -27 -19 -33 -20 -60 -9 -67
29 -140 10 -192 -49 -61 -70 -56 -145 13 -206 l45 -40 -12 -102 c-12 -98 -5
-296 17 -495 l6 -52 -41 -7 c-89 -15 -133 -75 -96 -131 18 -28 52 -31 97 -8
l30 16 -8 -159 c-19 -336 9 -496 106 -606 l33 -38 -47 -44 c-54 -53 -62 -96
-23 -133 36 -34 75 -28 131 18 27 22 59 43 71 46 13 3 70 -6 127 -21 229 -58
458 -41 671 50 14 6 28 -3 60 -38 57 -60 80 -72 114 -55 33 16 52 50 45 83 -2
14 -22 45 -43 69 -37 42 -38 44 -20 61 32 28 90 149 113 232 17 65 22 115 25
304 l5 226 29 -14 c16 -8 37 -12 47 -9 21 7 42 46 42 77 0 28 -46 67 -86 75
-19 3 -38 11 -42 18 -4 6 -10 124 -13 261 -5 168 -12 276 -23 330 -12 59 -13
81 -4 84 6 2 26 18 45 35 83 77 40 222 -76 257 -38 11 -50 11 -91 -4 l-48 -17
-49 30 c-60 37 -141 66 -224 79 -86 14 -298 12 -386 -4z m440 -25 c185 -47
295 -147 347 -315 34 -113 48 -234 54 -490 4 -132 11 -325 17 -430 29 -535
-87 -763 -436 -857 -111 -29 -364 -32 -475 -4 -113 28 -226 86 -288 147 -124
125 -157 291 -129 654 15 191 15 254 -4 484 -14 168 -7 350 16 436 24 88 81
188 135 239 83 78 219 133 385 155 99 14 289 4 378 -19z m413 -111 c38 -37 56
-86 47 -131 -6 -30 -56 -88 -76 -88 -19 0 -45 83 -33 103 7 11 7 25 0 44 -7
22 -17 29 -41 31 -22 2 -39 13 -53 33 l-21 29 23 10 c13 5 45 8 71 6 38 -2 55
-10 83 -37z m-1207 2 c12 -8 10 -16 -12 -45 -24 -31 -31 -34 -61 -29 -29 4
-37 1 -51 -21 -14 -22 -16 -32 -7 -51 7 -14 16 -25 22 -25 13 0 13 -21 0 -55
-9 -25 -11 -25 -40 -10 -84 43 -77 171 12 225 35 21 112 27 137 11z m1278
-956 c39 -16 68 -48 58 -65 -3 -5 -13 -6 -23 -3 -15 6 -15 5 -3 -11 10 -12 11
-20 3 -28 -8 -8 -22 -7 -52 7 -39 17 -40 20 -40 67 0 53 3 55 57 33z m-1399
-37 c-3 -40 -6 -45 -51 -67 -36 -18 -51 -21 -60 -12 -8 8 -8 14 1 23 18 18 15
27 -8 21 -41 -11 -14 36 35 62 17 8 43 15 58 15 27 0 28 -2 25 -42z m1237
-926 c14 -20 25 -44 25 -54 0 -28 -19 -31 -32 -4 -6 14 -15 26 -20 26 -5 0 -1
-14 7 -30 17 -33 13 -50 -11 -50 -17 0 -116 89 -112 101 2 5 21 21 43 38 46
34 61 30 100 -27z m-1035 4 l51 -34 -53 -38 c-79 -58 -90 -64 -110 -53 -17 9
-17 12 -2 40 20 39 11 49 -12 14 -19 -29 -40 -20 -30 13 7 22 80 92 95 92 5 0
32 -15 61 -34z"/>
<path d="M1680 2481 c-99 -30 -170 -116 -170 -204 0 -49 39 -118 86 -150 104
-72 285 -29 330 79 19 46 17 121 -5 169 -40 89 -146 135 -241 106z m137 -22
c88 -33 137 -153 99 -243 -20 -47 -81 -93 -142 -107 -175 -39 -310 127 -218
269 22 35 40 49 89 72 45 22 128 26 172 9z"/>
<path d="M1580 2313 c-36 -46 -11 -103 45 -103 39 0 56 18 57 59 2 66 -63 93
-102 44z m88 -55 c-6 -18 -28 -21 -28 -4 0 9 7 16 16 16 9 0 14 -5 12 -12z"/>
<path d="M1167 2459 c-51 -12 -87 -32 -119 -66 -35 -37 -48 -73 -48 -134 0
-107 72 -180 185 -187 75 -5 125 10 171 51 49 43 67 83 67 148 -1 65 -19 104
-67 147 -29 25 -113 55 -144 51 -4 -1 -24 -5 -45 -10z m124 -20 c73 -25 119
-92 119 -174 0 -191 -295 -256 -379 -83 -35 74 -26 145 27 202 55 59 153 82
233 55z"/>
<path d="M1067 2302 c-37 -40 -10 -112 41 -112 52 0 82 79 44 113 -24 22 -65
21 -85 -1z m83 -56 c0 -8 -4 -17 -9 -21 -12 -7 -24 12 -16 25 9 15 25 12 25
-4z"/>
<path d="M1422 2134 c-12 -8 -22 -20 -22 -26 0 -6 -16 -25 -35 -42 -50 -45
-55 -78 -16 -117 17 -17 31 -41 31 -54 0 -59 39 -97 78 -76 14 7 29 7 51 -2
47 -18 65 -1 69 62 3 46 5 51 27 51 25 0 65 42 65 68 0 9 -20 34 -45 58 -25
23 -45 46 -45 52 0 21 -45 42 -90 42 -25 0 -56 -7 -68 -16z m58 -94 c25 1 56
7 70 15 33 19 34 19 69 -11 36 -30 40 -63 12 -88 -19 -17 -22 -17 -71 -1 -50
17 -63 17 -158 -1 -40 -8 -62 9 -62 46 0 19 9 36 26 49 24 19 28 19 47 6 12
-8 42 -15 67 -15z m-3 -134 c-6 -67 -11 -76 -42 -76 -18 0 -26 8 -35 35 -16
49 -10 66 30 81 52 18 52 19 47 -40z m81 32 c6 -6 12 -30 12 -54 0 -33 -5 -46
-19 -54 -25 -13 -27 -13 -45 6 -16 16 -23 104 -9 117 8 8 42 -1 61 -15z"/>
</g>
</svg>
